<?xml version="1.0" encoding="utf-8"?>
<!-- Svg Vector Icons : http://www.onlinewebfonts.com/icon -->
<!DOCTYPE svg PUBLIC "-//W3C//DTD SVG 1.1//EN" "http://www.w3.org/Graphics/SVG/1.1/DTD/svg11.dtd">
<svg version="1.1" xmlns="http://www.w3.org/2000/svg" xmlns:xlink="http://www.w3.org/1999/xlink" x="0px" y="0px" viewBox="0 0 256 256" enable-background="new 0 0 256 256" xml:space="preserve">
<metadata> Svg Vector Icons : http://www.onlinewebfonts.com/icon </metadata>
<g><g><path fill="#000000" d="M244.4,115.1L139.2,24.3c-6.2-5.1-15.9-5.7-22.1,0L11.8,111.5c-2.1,2-2.6,5.1-0.5,7.2c2,2,5.1,2.6,7.2,0.5l7.2-6.2v107.3c0,8.2,6.7,15.4,14.9,15.4h174.5c8.2,0,14.9-6.7,14.9-15.4V116.7l7.2,6.2c1,1,2,1,3.6,1s3.1-0.5,4.1-1.5C246.4,119.8,246.4,116.7,244.4,115.1z M127.9,164.9c10.8,0,19.5,7.7,19.5,16.4v44.1h-39v-44.1C108.4,172.1,117.1,164.9,127.9,164.9z"/></g></g>
</svg>